<svg width="48" height="49" viewBox="0 0 48 49" fill="none" xmlns="http://www.w3.org/2000/svg">
<g id="article_black_24dp 1">
<g id="Group">
<path id="Vector" d="M38 6.875H10C7.8 6.875 6 8.675 6 10.875V38.875C6 41.075 7.8 42.875 10 42.875H38C40.2 42.875 42 41.075 42 38.875V10.875C42 8.675 40.2 6.875 38 6.875ZM26 34.875H16C14.9 34.875 14 33.975 14 32.875C14 31.775 14.9 30.875 16 30.875H26C27.1 30.875 28 31.775 28 32.875C28 33.975 27.1 34.875 26 34.875ZM32 26.875H16C14.9 26.875 14 25.975 14 24.875C14 23.775 14.9 22.875 16 22.875H32C33.1 22.875 34 23.775 34 24.875C34 25.975 33.1 26.875 32 26.875ZM32 18.875H16C14.9 18.875 14 17.975 14 16.875C14 15.775 14.9 14.875 16 14.875H32C33.1 14.875 34 15.775 34 16.875C34 17.975 33.1 18.875 32 18.875Z" fill="#011E31"/>
</g>
</g>
</svg>
