<svg width="48" height="49" viewBox="0 0 48 49" fill="none" xmlns="http://www.w3.org/2000/svg">
<g id="gavel_black_24dp 2" clip-path="url(#clip0_17_235)">
<path id="Vector" d="M33.4165 5.675C33.4165 3.011 35.5408 0.875 38.1903 0.875C40.8398 0.875 42.9641 3.011 42.9641 5.675C42.9641 8.339 40.8398 10.475 38.1903 10.475C35.5408 10.475 33.4165 8.339 33.4165 5.675ZM42.9641 46.475V34.475H45.6135C47.2366 34.475 48.3823 32.867 47.8811 31.307L42.8686 16.163C42.2003 14.195 40.3862 12.875 38.3335 12.875H38.0471C35.9944 12.875 34.1565 14.195 33.512 16.163L31.4593 22.355C34.0371 23.795 35.8034 26.507 35.8034 29.675V48.875H40.5772C41.89 48.875 42.9641 47.795 42.9641 46.475ZM25.0624 23.675C27.0435 23.675 28.6427 22.067 28.6427 20.075C28.6427 18.083 27.0435 16.475 25.0624 16.475C23.0813 16.475 21.482 18.083 21.482 20.075C21.482 22.067 23.0813 23.675 25.0624 23.675ZM8.35413 10.475C11.0036 10.475 13.1279 8.339 13.1279 5.675C13.1279 3.011 11.0036 0.875 8.35413 0.875C5.70468 0.875 3.58034 3.011 3.58034 5.675C3.58034 8.339 5.70468 10.475 8.35413 10.475ZM13.1279 46.475V32.075H14.3214C15.6342 32.075 16.7083 30.995 16.7083 29.675V17.675C16.7083 15.035 14.5601 12.875 11.9345 12.875H4.77379C2.1482 12.875 0 15.035 0 17.675V29.675C0 30.995 1.0741 32.075 2.38689 32.075H3.58034V46.475C3.58034 47.795 4.65444 48.875 5.96723 48.875H10.741C12.0538 48.875 13.1279 47.795 13.1279 46.475ZM19.0951 29.675V36.875C19.0951 38.195 20.1693 39.275 21.482 39.275V46.475C21.482 47.795 22.5561 48.875 23.8689 48.875H26.2558C27.5686 48.875 28.6427 47.795 28.6427 46.475V39.275C29.9555 39.275 31.0296 38.195 31.0296 36.875V29.675C31.0296 27.707 29.4065 26.075 27.4493 26.075H22.6755C20.7182 26.075 19.0951 27.707 19.0951 29.675Z" fill="#011E31"/>
</g>
<defs>
<clipPath id="clip0_17_235">
<rect width="48" height="48" fill="white" transform="translate(0 0.5)"/>
</clipPath>
</defs>
</svg>
