<svg width="48" height="49" viewBox="0 0 48 49" fill="none" xmlns="http://www.w3.org/2000/svg">
<g id="gavel_black_24dp 2" clip-path="url(#clip0_14_2)">
<path id="Vector" d="M42.2549 17.6624V5.26974C42.2549 3.68463 41.081 2.38772 39.6462 2.38772H37.0376C35.6028 2.38772 34.4289 3.68463 34.4289 5.26974V9.88097L25.742 1.23491C24.7507 0.255029 23.2377 0.255029 22.2464 1.23491L0.437871 22.9365C-0.449078 23.8011 0.0987433 25.4439 1.29873 25.4439H5.73348V45.618C5.73348 47.2031 6.90738 48.5 8.34215 48.5H16.1682C17.6029 48.5 18.7769 47.2031 18.7769 45.618V31.2079H29.2116V45.618C29.2116 47.2031 30.3855 48.5 31.8202 48.5H39.6462C41.081 48.5 42.2549 47.2031 42.2549 45.618V25.4439H46.6897C47.8897 25.4439 48.4636 23.8011 47.5505 22.9365L42.2549 17.6624ZM18.7769 19.6798C18.7769 16.5096 21.1247 13.9158 23.9942 13.9158C26.8637 13.9158 29.2116 16.5096 29.2116 19.6798H18.7769Z" fill="#011E31"/>
</g>
<defs>
<clipPath id="clip0_14_2">
<rect width="48" height="48" fill="white" transform="translate(0 0.5)"/>
</clipPath>
</defs>
</svg>
