<svg width="48" height="49" viewBox="0 0 48 49" fill="none" xmlns="http://www.w3.org/2000/svg">
<g id="gavel_black_24dp 2" clip-path="url(#clip0_14_6)">
<path id="Vector" d="M4 42.4999H24C25.1 42.4999 26 43.3999 26 44.4999C26 45.5999 25.1 46.4999 24 46.4999H4C2.9 46.4999 2 45.5999 2 44.4999C2 43.3999 2.9 42.4999 4 42.4999ZM10.48 16.6399L16.14 10.9799L41.6 36.4399C43.16 37.9999 43.16 40.5399 41.6 42.0999C40.04 43.6599 37.5 43.6599 35.94 42.0999L10.48 16.6399ZM27.46 5.31986L33.12 10.9799C34.68 12.5399 34.68 15.0799 33.12 16.6399L30.28 19.4799L18.98 8.15986L21.8 5.33986C23.36 3.75986 25.9 3.75986 27.46 5.31986ZM7.66 19.4599L18.98 30.7799L16.16 33.5999C14.6 35.1599 12.06 35.1599 10.5 33.5999L4.84 27.9399C3.28 26.3799 3.28 23.8399 4.84 22.2799L7.66 19.4599Z" fill="#011E31"/>
</g>
<defs>
<clipPath id="clip0_14_6">
<rect width="48" height="48" fill="white" transform="translate(0 0.5)"/>
</clipPath>
</defs>
</svg>
